# xmcd
#
# Track frame offsets:
#	150
#	22517
#	37081
#	55326
#	70079
#	83442
#	103362
#	121530
#	144066
#	160237
#
# Disc length: 2239 seconds
#
# Revision: 1
# Processed by: cddbd v1.5.2PL0 Copyright (c) Steve Scherf et al.
# Submitted via: audiograbber 1.83.01
#
DISCID=7008bd0a
DTITLE=New World Depression - Pure, Brutal And Honest
DYEAR=2010
DGENRE=Death Metal
TTITLE0=to be faced with ruin
TTITLE1=The calm
TTITLE2=Deboning
TTITLE3=Dominical day
TTITLE4=Master of humiliation
TTITLE5=Capture the flag
TTITLE6=Mountains of lies
TTITLE7=Next Station Hell
TTITLE8=Deliverance
TTITLE9=M.S.I.T.E. (extended Version)
EXTD=
EXTT0=
EXTT1=
EXTT2=
EXTT3=
EXTT4=
EXTT5=
EXTT6=
EXTT7=
EXTT8=
EXTT9=
PLAYORDER=
